<svg width="100" height="100" viewBox="0 0 100 100" xmlns="http://www.w3.org/2000/svg">
  <defs>
    <pattern id="grid" width="20" height="20" patternUnits="userSpaceOnUse">
      <path d="M 20 0 L 0 0 0 20" fill="none" stroke="#4ECDC4" stroke-width="0.5" stroke-opacity="0.3"/>
    </pattern>
    <pattern id="dots" width="20" height="20" patternUnits="userSpaceOnUse">
      <circle cx="0" cy="0" r="1" fill="#4ECDC4" fill-opacity="0.5"/>
      <circle cx="20" cy="0" r="1" fill="#4ECDC4" fill-opacity="0.5"/>
      <circle cx="0" cy="20" r="1" fill="#4ECDC4" fill-opacity="0.5"/>
      <circle cx="20" cy="20" r="1" fill="#4ECDC4" fill-opacity="0.5"/>
    </pattern>
    <filter id="glow" x="-50%" y="-50%" width="200%" height="200%">
      <feGaussianBlur stdDeviation="1" result="blur"/>
      <feComposite in="SourceGraphic" in2="blur" operator="over"/>
    </filter>
  </defs>
  <rect width="100" height="100" fill="url(#grid)"/>
  <rect width="100" height="100" fill="url(#dots)"/>
  
  <!-- Sci-fi accent lines -->
  <path d="M0,10 L100,10" stroke="#4ECDC4" stroke-width="0.5" stroke-opacity="0.2" filter="url(#glow)"/>
  <path d="M0,30 L100,30" stroke="#4ECDC4" stroke-width="0.5" stroke-opacity="0.2" filter="url(#glow)"/>
  <path d="M0,50 L100,50" stroke="#4ECDC4" stroke-width="0.5" stroke-opacity="0.2" filter="url(#glow)"/>
  <path d="M0,70 L100,70" stroke="#4ECDC4" stroke-width="0.5" stroke-opacity="0.2" filter="url(#glow)"/>
  <path d="M0,90 L100,90" stroke="#4ECDC4" stroke-width="0.5" stroke-opacity="0.2" filter="url(#glow)"/>
  
  <path d="M10,0 L10,100" stroke="#4ECDC4" stroke-width="0.5" stroke-opacity="0.2" filter="url(#glow)"/>
  <path d="M30,0 L30,100" stroke="#4ECDC4" stroke-width="0.5" stroke-opacity="0.2" filter="url(#glow)"/>
  <path d="M50,0 L50,100" stroke="#4ECDC4" stroke-width="0.5" stroke-opacity="0.2" filter="url(#glow)"/>
  <path d="M70,0 L70,100" stroke="#4ECDC4" stroke-width="0.5" stroke-opacity="0.2" filter="url(#glow)"/>
  <path d="M90,0 L90,100" stroke="#4ECDC4" stroke-width="0.5" stroke-opacity="0.2" filter="url(#glow)"/>
</svg> 