<svg width="32" height="32" viewBox="0 0 32 32" fill="none" xmlns="http://www.w3.org/2000/svg">
<path d="M20.6055 23.0215V28.4065H26.1787" stroke="white" stroke-width="2" stroke-linecap="round" stroke-linejoin="round"/>
<path d="M11.3594 8.97852V3.59349H5.78617" stroke="white" stroke-width="2" stroke-linecap="round" stroke-linejoin="round"/>
<path d="M16 28.4063C9.14822 28.4063 3.59375 22.8518 3.59375 16C3.59375 11.9349 5.54893 8.32636 8.57023 6.06361L10.6575 4.38794M16 3.59375C22.8518 3.59375 28.4063 9.14822 28.4063 16C28.4063 20.0779 26.4387 23.6964 23.4012 25.9577L21.5286 27.3993" stroke="white" stroke-width="2" stroke-linecap="round" stroke-linejoin="round"/>
<path fill-rule="evenodd" clip-rule="evenodd" d="M14.6309 10.4118L14.607 10.6379C14.4628 12.0034 13.0288 12.8313 11.7741 12.2735L11.5651 12.1805C11.2572 12.5108 10.9815 12.881 10.7461 13.2888C10.5106 13.6966 10.3279 14.1203 10.1958 14.5522L10.3808 14.6867C11.4913 15.4944 11.4913 17.1502 10.3808 17.9578L10.1969 18.0916C10.463 18.965 10.9254 19.78 11.5648 20.4642L11.7741 20.3711C13.0288 19.8132 14.4628 20.6411 14.607 22.0067L14.6311 22.2345C15.5433 22.4461 16.4803 22.4391 17.3697 22.2328L17.3936 22.0067C17.5378 20.6411 18.9718 19.8132 20.2265 20.3711L20.4355 20.4641C20.7435 20.1337 21.0191 19.7636 21.2545 19.3558C21.49 18.948 21.6727 18.5242 21.8048 18.0924L21.6198 17.9578C20.5093 17.1502 20.5093 15.4944 21.6198 14.6867L21.8037 14.553C21.5376 13.6796 21.0752 12.8646 20.4358 12.1804L20.2265 12.2735C18.9718 12.8314 17.5378 12.0034 17.3936 10.6379L17.3695 10.4101C16.4573 10.1985 15.5203 10.2055 14.6309 10.4118ZM14.8348 18.3384C15.9487 18.9815 17.373 18.5998 18.0161 17.4859C18.6592 16.372 18.2776 14.9477 17.1637 14.3046C16.0498 13.6615 14.6255 14.0431 13.9824 15.157C13.3392 16.2709 13.7209 17.6953 14.8348 18.3384Z" fill="#008081"/>
</svg>
